<svg aria-hidden="true" style="position: absolute; width: 0; height: 0; overflow: hidden;" version="1.1"
    xmlns="http://www.w3.org/2000/svg" xmlns:xlink="http://www.w3.org/1999/xlink">
    <defs>
        <symbol id="icon-ws_logo" viewBox="0 0 32 32">
            <path fill="#2396f2" style="fill: var(--color2, #2396f2)"
                d="M15.544 20.764c-0.261 0.643-0.514 1.275-0.776 1.904-0.019 0.047-0.096 0.099-0.147 0.099-0.661 0.006-1.323 0.001-1.984 0.007-0.12 0.001-0.148-0.071-0.182-0.154-0.348-0.841-0.696-1.683-1.043-2.524-0.4-0.971-0.8-1.943-1.2-2.915-0.010-0.024-0.024-0.046-0.046-0.087-0.102 0.244-0.2 0.473-0.295 0.703-0.666 1.616-1.332 3.232-1.995 4.849-0.037 0.090-0.082 0.127-0.182 0.127-0.651-0.004-1.302-0.003-1.953 0.001-0.099 0.001-0.145-0.036-0.182-0.127-1.124-2.788-2.251-5.576-3.378-8.363-0.657-1.625-1.315-3.25-1.972-4.875-0.023-0.057-0.044-0.115-0.071-0.187 0.061-0.003 0.106-0.007 0.151-0.007 0.844-0.001 1.688 0.001 2.531-0.003 0.107-0.001 0.151 0.036 0.187 0.135 1.078 2.95 2.159 5.899 3.24 8.848 0.168 0.459 0.335 0.918 0.503 1.377 0.016 0.043 0.034 0.085 0.064 0.161 0.051-0.124 0.092-0.22 0.13-0.318 0.499-1.29 1-2.58 1.493-3.873 0.030-0.079 0.029-0.188 0-0.267-0.623-1.705-1.251-3.407-1.878-5.11-0.109-0.296-0.216-0.593-0.334-0.916 0.084 0 0.139 0 0.194 0 0.672 0 1.344 0.007 2.016-0.004 0.164-0.003 0.233 0.046 0.285 0.2 0.456 1.366 0.92 2.73 1.382 4.094 0.018 0.053 0.040 0.105 0.072 0.188 0.154-0.452 0.299-0.873 0.442-1.295 0.347-1.019 0.694-2.038 1.039-3.057 0.024-0.072 0.041-0.129 0.142-0.129 0.755 0.004 1.51 0.003 2.266 0.004 0.015 0 0.030 0.006 0.068 0.014-0.020 0.059-0.038 0.116-0.058 0.171-0.728 1.944-1.456 3.887-2.18 5.833-0.030 0.080-0.037 0.189-0.007 0.266 0.528 1.351 1.064 2.7 1.599 4.049 0.017 0.043 0.039 0.084 0.070 0.148 0.12-0.327 0.234-0.633 0.346-0.939 0.927-2.54 1.853-5.081 2.779-7.621 0.223-0.611 0.445-1.222 0.663-1.834 0.030-0.083 0.065-0.125 0.162-0.124 0.875 0.004 1.75 0.002 2.625 0.003 0.030 0 0.059 0.008 0.109 0.016-0.040 0.105-0.075 0.201-0.114 0.295-0.681 1.671-1.364 3.342-2.044 5.014-0.751 1.845-1.499 3.691-2.249 5.537-0.092 0.226-0.187 0.452-0.286 0.688z">
            </path>
            <path fill="#010101" style="fill: var(--color3, #010101)"
                d="M27.312 14.969c0.757 0.227 1.506 0.443 2.197 0.809 0.771 0.408 1.359 0.984 1.653 1.826 0.167 0.479 0.202 0.974 0.191 1.476-0.023 1.025-0.376 1.907-1.131 2.614-0.461 0.431-1.010 0.707-1.605 0.897-0.981 0.312-1.987 0.369-3.008 0.291-1.585-0.121-3.070-0.557-4.436-1.378-0.165-0.099-0.323-0.209-0.484-0.314-0.013-0.008-0.027-0.015-0.042-0.022 0.391-0.762 0.774-1.51 1.15-2.242 0.37 0.228 0.725 0.468 1.099 0.673 1.044 0.573 2.159 0.91 3.355 0.95 0.502 0.017 0.995-0.033 1.473-0.206 1.013-0.365 1.060-1.622 0.354-2.154-0.389-0.293-0.822-0.486-1.279-0.628-0.862-0.268-1.73-0.513-2.592-0.78-0.698-0.217-1.363-0.508-1.936-0.976-0.672-0.549-1.008-1.265-1.055-2.125-0.038-0.7 0.038-1.382 0.322-2.029 0.395-0.902 1.060-1.541 1.942-1.962 1.021-0.488 2.104-0.62 3.222-0.555 1.51 0.088 2.85 0.657 4.112 1.446 0.021 0.013 0.040 0.030 0.066 0.050-0.387 0.71-0.77 1.415-1.155 2.121-0.826-0.642-1.748-1.041-2.756-1.233-0.728-0.139-1.461-0.156-2.169 0.116-0.799 0.308-1.141 1.266-0.709 1.973 0.159 0.261 0.406 0.429 0.672 0.566 0.544 0.281 1.138 0.416 1.723 0.574 0.27 0.073 0.541 0.145 0.824 0.22z">
            </path>
        </symbol>
    </defs>
</svg>